<mxfile host="65bd71144e">
    <diagram id="h3hoUziQs-trIPtAIwxM" name="Page-1">
        <mxGraphModel dx="1309" dy="697" grid="1" gridSize="10" guides="1" tooltips="1" connect="1" arrows="1" fold="1" page="1" pageScale="1" pageWidth="850" pageHeight="1100" math="0" shadow="0">
            <root>
                <mxCell id="0"/>
                <mxCell id="1" parent="0"/>
                <mxCell id="4" value="&lt;div style=&quot;text-align: center;&quot;&gt;&lt;span style=&quot;background-color: initial;&quot;&gt;&lt;font style=&quot;font-size: 14px;&quot;&gt;App Landing page&lt;/font&gt;&lt;/span&gt;&lt;/div&gt;&lt;div style=&quot;text-align: center;&quot;&gt;&lt;br&gt;&lt;/div&gt;button: Submit next to input city - When submit clicked display another input box with a button saying compare to&lt;br&gt;&lt;br&gt;use: useEffect to handle api call&lt;br&gt;&lt;span style=&quot;white-space: pre;&quot;&gt;&#9;&lt;/span&gt;useState to handle when user has inputted a city it changes background from default&lt;br&gt;&lt;br&gt;render: &lt;span style=&quot;white-space: pre;&quot;&gt;&#9;&lt;/span&gt;Background image - non descript weather image which changes when city entered&lt;br&gt;&lt;span style=&quot;white-space: pre;&quot;&gt;&#9;&lt;/span&gt;&lt;span style=&quot;white-space: pre;&quot;&gt;&#9;&lt;/span&gt;Background will need to split if they choose another city top for one bottom for the other" style="rounded=0;whiteSpace=wrap;html=1;align=left;" vertex="1" parent="1">
                    <mxGeometry x="180" y="153" width="550" height="157" as="geometry"/>
                </mxCell>
                <mxCell id="5" value="2nd city choice&lt;br&gt;&lt;br&gt;&lt;div style=&quot;text-align: left;&quot;&gt;&lt;span style=&quot;background-color: initial;&quot;&gt;use useState to re-render when the state changes - the user inputs a second city&lt;/span&gt;&lt;/div&gt;&lt;div style=&quot;text-align: left;&quot;&gt;&lt;span style=&quot;background-color: initial;&quot;&gt;&lt;br&gt;&lt;/span&gt;&lt;/div&gt;&lt;div style=&quot;text-align: left;&quot;&gt;&lt;span style=&quot;background-color: initial;&quot;&gt;displays:&amp;nbsp;&lt;/span&gt;&lt;span style=&quot;background-color: initial;&quot;&gt;city, max temp, min temp, chance of rain&lt;/span&gt;&lt;/div&gt;" style="rounded=0;whiteSpace=wrap;html=1;" vertex="1" parent="1">
                    <mxGeometry x="300" y="492" width="180" height="149" as="geometry"/>
                </mxCell>
                <mxCell id="6" value="Input Form&lt;br&gt;&lt;br&gt;&lt;div style=&quot;text-align: left;&quot;&gt;&lt;span style=&quot;background-color: initial;&quot;&gt;use useState to re-render when the state changes - the user enters a city&amp;nbsp;&lt;/span&gt;&lt;/div&gt;&lt;div style=&quot;text-align: left;&quot;&gt;&lt;span style=&quot;background-color: initial;&quot;&gt;&lt;br&gt;&lt;/span&gt;&lt;/div&gt;&lt;div style=&quot;text-align: left;&quot;&gt;&lt;span style=&quot;background-color: initial;&quot;&gt;displays: city, max temp, min temp, chance of rain&lt;/span&gt;&lt;/div&gt;" style="rounded=0;whiteSpace=wrap;html=1;" vertex="1" parent="1">
                    <mxGeometry x="70" y="492" width="180" height="149" as="geometry"/>
                </mxCell>
                <mxCell id="7" style="edgeStyle=none;html=1;exitX=0.5;exitY=1;exitDx=0;exitDy=0;fontSize=14;entryX=0.5;entryY=0;entryDx=0;entryDy=0;" edge="1" parent="1" source="4" target="6">
                    <mxGeometry relative="1" as="geometry">
                        <mxPoint x="350" y="301" as="targetPoint"/>
                        <mxPoint x="455" y="316" as="sourcePoint"/>
                    </mxGeometry>
                </mxCell>
                <mxCell id="8" value="&lt;span style=&quot;font-size: 14px; text-align: left; background-color: rgb(42, 37, 47);&quot;&gt;props:&lt;/span&gt;&lt;br style=&quot;font-size: 14px; text-align: left; background-color: rgb(42, 37, 47);&quot;&gt;&lt;br style=&quot;font-size: 14px; text-align: left; background-color: rgb(42, 37, 47);&quot;&gt;&lt;span style=&quot;font-size: 14px; text-align: left; background-color: rgb(42, 37, 47);&quot;&gt;json packet data&lt;/span&gt;" style="edgeLabel;html=1;align=center;verticalAlign=middle;resizable=0;points=[];fontSize=12;" vertex="1" connectable="0" parent="7">
                    <mxGeometry x="-0.1295" y="-2" relative="1" as="geometry">
                        <mxPoint x="-68" y="37" as="offset"/>
                    </mxGeometry>
                </mxCell>
                <mxCell id="9" style="edgeStyle=none;html=1;entryX=0.5;entryY=0;entryDx=0;entryDy=0;fontSize=14;exitX=0.5;exitY=1;exitDx=0;exitDy=0;" edge="1" parent="1" source="4" target="5">
                    <mxGeometry relative="1" as="geometry">
                        <mxPoint x="455" y="316" as="sourcePoint"/>
                    </mxGeometry>
                </mxCell>
                <mxCell id="10" value="&lt;span style=&quot;font-size: 14px; text-align: left; background-color: rgb(42, 37, 47);&quot;&gt;props:&lt;br&gt;&lt;/span&gt;&lt;br style=&quot;font-size: 14px; text-align: left; background-color: rgb(42, 37, 47);&quot;&gt;&lt;span style=&quot;font-size: 14px; text-align: left; background-color: rgb(42, 37, 47);&quot;&gt;json packet data&lt;/span&gt;" style="edgeLabel;html=1;align=center;verticalAlign=middle;resizable=0;points=[];fontSize=12;" vertex="1" connectable="0" parent="9">
                    <mxGeometry x="-0.1833" y="-1" relative="1" as="geometry">
                        <mxPoint x="3" y="23" as="offset"/>
                    </mxGeometry>
                </mxCell>
                <mxCell id="11" style="edgeStyle=none;html=1;exitX=0.5;exitY=1;exitDx=0;exitDy=0;entryX=0.5;entryY=0;entryDx=0;entryDy=0;fontSize=14;" edge="1" parent="1" source="4" target="14">
                    <mxGeometry relative="1" as="geometry">
                        <mxPoint x="455" y="316" as="sourcePoint"/>
                    </mxGeometry>
                </mxCell>
                <mxCell id="12" value="&lt;span style=&quot;text-align: left; background-color: rgb(42, 37, 47);&quot;&gt;props:&lt;/span&gt;&lt;br style=&quot;text-align: left; background-color: rgb(42, 37, 47);&quot;&gt;&lt;div style=&quot;text-align: left;&quot;&gt;&lt;br&gt;&lt;/div&gt;&lt;span style=&quot;text-align: left; background-color: rgb(42, 37, 47);&quot;&gt;json packet data&lt;/span&gt;" style="edgeLabel;html=1;align=center;verticalAlign=middle;resizable=0;points=[];fontSize=12;" vertex="1" connectable="0" parent="11">
                    <mxGeometry x="0.1304" y="4" relative="1" as="geometry">
                        <mxPoint x="7" as="offset"/>
                    </mxGeometry>
                </mxCell>
                <mxCell id="14" value="Button&lt;br&gt;&lt;br&gt;one button resused wherever i want to get Weather data" style="rounded=0;whiteSpace=wrap;html=1;" vertex="1" parent="1">
                    <mxGeometry x="580" y="482" width="230" height="159" as="geometry"/>
                </mxCell>
                <mxCell id="15" value="Weather app that displays the users weather at one location that they input&lt;br&gt;&lt;span style=&quot;white-space: pre;&quot;&gt;&#9;&lt;/span&gt;Display location max and min temp and overall sunny, raining, cloudy&lt;br&gt;&lt;span style=&quot;white-space: pre;&quot;&gt;&#9;&lt;/span&gt;think about icons as well as text&lt;br&gt;a background that represents the weather in their location might have to set break points depending on temperature - Think about what is the default unitl they have enetered a city&lt;br&gt;Then have 5 day forecast that shows the next 5 days&lt;br&gt;Then have a compare button which shows allows a second location to be eneterred and displays it alongside their intial choice" style="text;html=1;strokeColor=none;fillColor=none;align=left;verticalAlign=middle;whiteSpace=wrap;rounded=0;" vertex="1" parent="1">
                    <mxGeometry x="90" y="10" width="590" height="130" as="geometry"/>
                </mxCell>
                <mxCell id="16" value="&lt;font style=&quot;font-size: 12px;&quot;&gt;Think about can i use dispatch as a prop&lt;/font&gt;" style="text;html=1;strokeColor=#B09500;fillColor=#e3c800;align=left;verticalAlign=middle;whiteSpace=wrap;rounded=0;fontSize=12;fontColor=#000000;" vertex="1" parent="1">
                    <mxGeometry x="40" y="300" width="120" height="59" as="geometry"/>
                </mxCell>
                <mxCell id="20" value="" style="edgeStyle=none;html=1;" edge="1" parent="1" source="19" target="4">
                    <mxGeometry relative="1" as="geometry"/>
                </mxCell>
                <mxCell id="19" value="&lt;font style=&quot;font-size: 12px;&quot;&gt;Dont forget validation input allows certain characters and challanege yourself to get an wuto complete working for the name input&lt;/font&gt;" style="ellipse;shape=cloud;whiteSpace=wrap;html=1;fontSize=12;" vertex="1" parent="1">
                    <mxGeometry y="185" width="180" height="110" as="geometry"/>
                </mxCell>
            </root>
        </mxGraphModel>
    </diagram>
</mxfile>